<svg width="16" height="18" viewBox="0 0 16 18" fill="none" xmlns="http://www.w3.org/2000/svg">
<path d="M7.23138 0.629167L6.18138 0L5.98138 1.2075C5.66305 3.11417 4.36055 4.88583 2.92388 6.13083C0.111384 8.56917 -0.504449 11.2192 0.366384 13.4067C1.19972 15.5 3.31472 16.9333 5.46138 17.1725L5.95805 17.2275C4.72972 16.4767 3.94138 14.7225 4.21638 13.4117C4.48805 12.1233 5.41472 10.9167 7.19472 9.80333L8.09222 9.24333L8.42722 10.2475C8.62472 10.8408 8.96638 11.3175 9.31388 11.8017C9.48055 12.035 9.64972 12.2708 9.80472 12.5217C10.3406 13.3925 10.4822 14.3608 10.1364 15.3217C9.82138 16.195 9.30222 16.8817 8.58638 17.2625L9.39472 17.1725C11.4097 16.9483 12.8889 16.2592 13.8497 15.1067C14.8022 13.9642 15.1364 12.4933 15.1364 10.9275C15.1364 9.46917 14.5372 7.96583 13.8306 6.715C13.0022 5.25 11.9214 4.03333 10.7414 2.85417C10.5372 3.2625 10.5531 3.4275 10.1331 4.08333C9.58788 2.63483 8.56409 1.41611 7.23138 0.629167Z" fill="#B46C00"/>
</svg>
