<svg width="18" height="16" viewBox="0 0 18 16" fill="none" xmlns="http://www.w3.org/2000/svg">
<path d="M12.8793 0C11.3206 0 9.93724 0.634385 9 1.72476C8.06276 0.634385 6.6794 0 5.12069 0C3.7631 0.00169364 2.46159 0.558508 1.50163 1.54831C0.54167 2.53811 0.00164258 3.88008 0 5.27987C0 11.0669 8.2094 15.6908 8.55853 15.8852C8.69421 15.9606 8.8459 16 9 16C9.1541 16 9.30579 15.9606 9.44147 15.8852C9.7906 15.6908 18 11.0669 18 5.27987C17.9984 3.88008 17.4583 2.53811 16.4984 1.54831C15.5384 0.558508 14.2369 0.00169364 12.8793 0Z" fill="#D82828"/>
</svg>
