<svg width="18" height="13" viewBox="0 0 18 13" fill="none" xmlns="http://www.w3.org/2000/svg">
<path d="M2.21785 4.13533C2.21777 3.44999 2.38243 2.77536 2.69702 2.17214C3.01161 1.56892 3.46627 1.05603 4.0201 0.679583C4.57393 0.30314 5.20956 0.0749577 5.86983 0.0155595C6.53009 -0.0438387 7.19428 0.0674099 7.80265 0.339299C8.41102 0.611189 8.9445 1.03519 9.3551 1.57317C9.7657 2.11115 10.0405 2.74624 10.1549 3.42131C10.2693 4.09638 10.2196 4.79026 10.0103 5.44054C9.80101 6.09082 9.43869 6.67711 8.95593 7.14667C9.86623 7.60346 10.6566 8.28051 11.26 9.12041C11.8634 9.96031 12.262 10.9383 12.4221 11.9714C12.4397 12.0864 12.4353 12.2038 12.409 12.317C12.3828 12.4302 12.3352 12.5369 12.269 12.6311C12.2029 12.7253 12.1195 12.805 12.0235 12.8659C11.9275 12.9267 11.8209 12.9674 11.7098 12.9856C11.5986 13.0039 11.485 12.9993 11.3756 12.9721C11.2661 12.945 11.1629 12.8958 11.0719 12.8274C10.9808 12.759 10.9036 12.6727 10.8448 12.5735C10.786 12.4742 10.7466 12.364 10.729 12.249C10.5576 11.1389 10.0092 10.1283 9.18209 9.39872C8.35501 8.66914 7.3035 8.26836 6.21637 8.26836C5.12925 8.26836 4.07773 8.66914 3.25065 9.39872C2.42357 10.1283 1.87511 11.1389 1.70375 12.249C1.68605 12.364 1.64663 12.4742 1.58773 12.5734C1.52883 12.6726 1.45161 12.7589 1.36048 12.8272C1.26936 12.8956 1.16611 12.9447 1.05662 12.9718C0.947141 12.9988 0.833573 13.0033 0.722403 12.985C0.611233 12.9667 0.504639 12.926 0.408706 12.8651C0.312774 12.8042 0.229381 12.7243 0.16329 12.6301C0.0971995 12.5358 0.0497045 12.4291 0.0235173 12.3159C-0.00266998 12.2026 -0.00703669 12.0852 0.0106665 11.9702C0.17099 10.9375 0.569746 9.95995 1.17313 9.12047C1.77652 8.281 2.56674 7.60433 3.47681 7.14785C3.07887 6.76146 2.76182 6.29474 2.54527 5.77658C2.32873 5.25841 2.21729 4.69982 2.21785 4.13533ZM12.4998 2.36327C13.1635 2.36375 13.8129 2.56347 14.369 2.93818C14.9252 3.3129 15.3641 3.8465 15.6327 4.47421C15.9012 5.10192 15.9878 5.79675 15.8819 6.47435C15.776 7.15195 15.4821 7.78318 15.036 8.29142C15.7313 8.64842 16.3492 9.14797 16.852 9.7597C17.3548 10.3714 17.732 11.0825 17.9606 11.8497C18.0059 11.9987 18.0123 12.1573 17.9791 12.3097C17.9459 12.462 17.8743 12.6025 17.7716 12.7169C17.669 12.8314 17.5388 12.9157 17.3944 12.9614C17.2501 13.007 17.0966 13.0123 16.9495 12.9768C16.8027 12.9414 16.6674 12.8667 16.5573 12.7601C16.4472 12.6535 16.3661 12.5188 16.3223 12.3695C16.1176 11.6846 15.7445 11.0663 15.2395 10.5751C14.7344 10.084 14.1148 9.7367 13.4411 9.56731C13.254 9.52061 13.0876 9.41013 12.9687 9.25368C12.8497 9.09724 12.7851 8.90393 12.7854 8.70491V8.28906C12.7853 8.1241 12.8297 7.96239 12.9137 7.82213C12.9976 7.68187 13.1178 7.56864 13.2606 7.49518C13.607 7.31768 13.8851 7.02431 14.0499 6.66271C14.2146 6.30112 14.2563 5.89255 14.1682 5.50336C14.08 5.11416 13.8673 4.76722 13.5644 4.51887C13.2615 4.27052 12.8863 4.13536 12.4998 4.13533C12.2725 4.13533 12.0546 4.04199 11.8939 3.87582C11.7332 3.70966 11.6429 3.48429 11.6429 3.2493C11.6429 3.01431 11.7332 2.78894 11.8939 2.62278C12.0546 2.45662 12.2725 2.36327 12.4998 2.36327ZM6.21637 1.77258C5.9121 1.76546 5.60951 1.82128 5.32639 1.93676C5.04326 2.05223 4.7853 2.22503 4.56764 2.44502C4.34999 2.66501 4.17702 2.92775 4.05891 3.21781C3.9408 3.50787 3.87992 3.81941 3.87985 4.13414C3.87977 4.44887 3.9405 4.76044 4.05847 5.05056C4.17644 5.34069 4.34927 5.60351 4.56682 5.82361C4.78437 6.04371 5.04225 6.21665 5.32532 6.33227C5.6084 6.44789 5.91095 6.50387 6.21523 6.49691C6.81222 6.48326 7.38032 6.22847 7.79792 5.78709C8.21552 5.34571 8.44944 4.75282 8.44958 4.13532C8.44973 3.51783 8.21611 2.92481 7.79872 2.48321C7.38134 2.04162 6.81336 1.78654 6.21637 1.77258Z" fill="#2C2C2C"/>
</svg>
