<svg width="13" height="14" viewBox="0 0 13 14" fill="none" xmlns="http://www.w3.org/2000/svg">
<path d="M3.75 5.66667H2.375C2.01033 5.66667 1.66059 5.80714 1.40273 6.05719C1.14487 6.30724 1 6.64638 1 7V11.6667C1 12.0203 1.14487 12.3594 1.40273 12.6095C1.66059 12.8595 2.01033 13 2.375 13H10.625C10.9897 13 11.3394 12.8595 11.5973 12.6095C11.8551 12.3594 12 12.0203 12 11.6667V7C12 6.64638 11.8551 6.30724 11.5973 6.05719C11.3394 5.80714 10.9897 5.66667 10.625 5.66667H9.25M3.75 5.66667V3.66667C3.75 2.95942 4.03973 2.28115 4.55546 1.78105C5.07118 1.28095 5.77065 1 6.5 1C7.22935 1 7.92882 1.28095 8.44454 1.78105C8.96027 2.28115 9.25 2.95942 9.25 3.66667V5.66667M3.75 5.66667H9.25M6.5 8.33333V10.3333" stroke="#515151" stroke-linecap="round" stroke-linejoin="round"/>
</svg>
