<svg width="170" height="14" viewBox="0 0 170 14" fill="none" xmlns="http://www.w3.org/2000/svg">
<path d="M6 14V12H4V10H2V8H0V6H2V4H4V2H6V0H10V2H8V4H6V6H4V8H6V10H8V12H10V14H6ZM18 14V12H16V10H14V4H16V2H18V0H26V2H28V4H24V2H20V4H18V10H20V12H24V10H28V12H26V14H18ZM30 14V0H34V6H40V0H44V14H40V8H34V14H30ZM46 14V4H48V2H50V0H56V2H58V4H60V14H56V10H50V14H46ZM50 8H56V4H54V2H52V4H50V8ZM68 14V2H64V0H76V2H72V14H68ZM80 8V6H92V8H80ZM94 14V4H96V2H98V0H104V2H106V4H108V14H104V10H98V14H94ZM98 8H104V4H102V2H100V4H98V8ZM110 14V0H122V2H124V8H122V10H114V14H110ZM114 8H120V2H114V8ZM126 14V0H138V2H140V8H138V10H130V14H126ZM130 8H136V2H130V8ZM156 0V2H154V0H156ZM152 2H154V4H152V2ZM150 4H152V6H150V4ZM148 6H150V8H148V6ZM146 8H148V10H146V8ZM144 10H146V12H144V10ZM142 12H144V14H142V12ZM160 14V12H162V10H164V8H166V6H164V4H162V2H160V0H164V2H166V4H168V6H170V8H168V10H166V12H164V14H160Z" fill="white"/>
</svg>
