<svg width="11" height="9" viewBox="0 0 11 9" fill="none" xmlns="http://www.w3.org/2000/svg">
<path d="M1.1 9C0.7975 9 0.538633 8.88994 0.3234 8.66981C0.108167 8.44969 0.000366667 8.18475 0 7.875V1.125C0 0.815625 0.1078 0.550875 0.3234 0.33075C0.539 0.110625 0.797867 0.000375 1.1 0H9.9C10.2025 0 10.4615 0.11025 10.6771 0.33075C10.8927 0.55125 11.0004 0.816 11 1.125V7.875C11 8.18437 10.8924 8.44931 10.6771 8.66981C10.4619 8.89031 10.2029 9.00037 9.9 9H1.1ZM5.5 5.0625L1.1 2.25V7.875H9.9V2.25L5.5 5.0625ZM5.5 3.9375L9.9 1.125H1.1L5.5 3.9375ZM1.1 2.25V1.125V7.875V2.25Z" fill="#515151"/>
</svg>
