<svg width="18" height="18" viewBox="0 0 18 18" fill="none" xmlns="http://www.w3.org/2000/svg">
<path d="M8.03573 9C8.03573 9.25574 8.13732 9.50101 8.31816 9.68185C8.49899 9.86269 8.74426 9.96429 9 9.96429C9.25574 9.96429 9.50101 9.86269 9.68185 9.68185C9.86268 9.50101 9.96428 9.25574 9.96428 9C9.96428 8.74426 9.86268 8.49899 9.68185 8.31815C9.50101 8.13731 9.25574 8.03571 9 8.03571C8.74426 8.03571 8.49899 8.13731 8.31816 8.31815C8.13732 8.49899 8.03573 8.74426 8.03573 9ZM12.0535 9C12.0535 9.25574 12.1551 9.50101 12.336 9.68185C12.5168 9.86269 12.7621 9.96429 13.0178 9.96429C13.2735 9.96429 13.5188 9.86269 13.6997 9.68185C13.8805 9.50101 13.9821 9.25574 13.9821 9C13.9821 8.74426 13.8805 8.49899 13.6997 8.31815C13.5188 8.13731 13.2735 8.03571 13.0178 8.03571C12.7621 8.03571 12.5168 8.13731 12.336 8.31815C12.1551 8.49899 12.0535 8.74426 12.0535 9ZM4.01792 9C4.01792 9.25574 4.11951 9.50101 4.30035 9.68185C4.48119 9.86269 4.72645 9.96429 4.98219 9.96429C5.23794 9.96429 5.4832 9.86269 5.66404 9.68185C5.84488 9.50101 5.94647 9.25574 5.94647 9C5.94647 8.74426 5.84488 8.49899 5.66404 8.31815C5.4832 8.13731 5.23794 8.03571 4.98219 8.03571C4.72645 8.03571 4.48119 8.13731 4.30035 8.31815C4.11951 8.49899 4.01792 8.74426 4.01792 9ZM17.3008 5.5125C16.8468 4.43371 16.1959 3.4654 15.3662 2.63371C14.5423 1.80682 13.5643 1.14955 12.4875 0.699107C11.3826 0.235045 10.2094 0 9 0H8.95982C7.74243 0.00602679 6.5632 0.247098 5.45429 0.721205C4.38667 1.17627 3.41779 1.83471 2.60164 2.65982C1.78 3.48951 1.13514 4.45379 0.689168 5.52857C0.22712 6.64152 -0.00591274 7.82478 0.000113971 9.04219C0.00693068 10.4373 0.336991 11.8119 0.964388 13.058V16.1116C0.964388 16.3567 1.06175 16.5917 1.23505 16.765C1.40835 16.9384 1.6434 17.0357 1.88848 17.0357H4.94403C6.19014 17.6631 7.5647 17.9932 8.95982 18H9.00201C10.2053 18 11.3725 17.767 12.4714 17.3109C13.5428 16.8659 14.5172 16.2163 15.3401 15.3984C16.1698 14.5768 16.8227 13.6165 17.2787 12.5458C17.7528 11.4368 17.9939 10.2576 17.9999 9.04018C18.0059 7.81674 17.7689 6.62946 17.3008 5.5125ZM14.2653 14.3116C12.8571 15.7058 10.9888 16.4732 9 16.4732H8.96585C7.75448 16.4672 6.55115 16.1658 5.48844 15.5993L5.31969 15.5089H2.49115V12.6804L2.40075 12.5116C1.83424 11.4489 1.53291 10.2455 1.52688 9.03415C1.51884 7.03125 2.28424 5.15089 3.68846 3.7346C5.09068 2.3183 6.96498 1.53482 8.96786 1.52679H9.00201C10.0065 1.52679 10.9808 1.72165 11.8988 2.10737C12.7948 2.48304 13.5984 3.02344 14.2894 3.71451C14.9785 4.40357 15.5209 5.20915 15.8966 6.10513C16.2863 7.03326 16.4812 8.01763 16.4771 9.03415C16.4651 11.035 15.6796 12.9094 14.2653 14.3116Z" fill="#2C2C2C"/>
</svg>
