<svg width="12" height="12" viewBox="0 0 12 12" fill="none" xmlns="http://www.w3.org/2000/svg">
<path fill-rule="evenodd" clip-rule="evenodd" d="M11.6434 1.31011C11.7147 1.23894 11.7713 1.15442 11.8099 1.06139C11.8485 0.968361 11.8684 0.868639 11.8684 0.767918C11.8685 0.667197 11.8487 0.567451 11.8102 0.474374C11.7717 0.381296 11.7153 0.29671 11.6441 0.225446C11.5729 0.154182 11.4884 0.0976357 11.3954 0.0590343C11.3024 0.020433 11.2026 0.000533339 11.1019 0.000471433C11.0012 0.000409527 10.9015 0.0201866 10.8084 0.0586735C10.7153 0.0971605 10.6307 0.153603 10.5594 0.22478L5.93411 4.85011L1.31011 0.22478C1.16619 0.0808556 0.970986 -1.51649e-09 0.767447 0C0.563907 1.51649e-09 0.368704 0.0808556 0.22478 0.22478C0.0808556 0.368704 1.51649e-09 0.563907 0 0.767447C-1.51649e-09 0.970986 0.0808556 1.16619 0.22478 1.31011L4.85011 5.93411L0.22478 10.5581C0.153516 10.6294 0.0969861 10.714 0.0584183 10.8071C0.0198505 10.9002 0 11 0 11.1008C0 11.2016 0.0198505 11.3014 0.0584183 11.3945C0.0969861 11.4876 0.153516 11.5722 0.22478 11.6434C0.368704 11.7874 0.563907 11.8682 0.767447 11.8682C0.868229 11.8682 0.968025 11.8484 1.06114 11.8098C1.15425 11.7712 1.23885 11.7147 1.31011 11.6434L5.93411 7.01811L10.5594 11.6434C10.7034 11.7872 10.8985 11.8679 11.1019 11.8678C11.3053 11.8676 11.5004 11.7867 11.6441 11.6428C11.7879 11.4989 11.8685 11.3037 11.8684 11.1003C11.8683 10.8969 11.7874 10.7019 11.6434 10.5581L7.01811 5.93411L11.6434 1.31011Z" fill="#4B4B4B"/>
</svg>
