<svg width="18" height="18" viewBox="0 0 18 18" fill="none" xmlns="http://www.w3.org/2000/svg">
<path fill-rule="evenodd" clip-rule="evenodd" d="M6.28889 6H11.7111C12.3013 6 12.8107 6 13.2187 6.04852C13.656 6.10017 14.0747 6.21678 14.4142 6.51574C14.7538 6.8147 14.8862 7.18409 14.9449 7.56835C15 7.92756 15 8.376 15 8.89644V12.1036C15 12.624 15 13.0724 14.9449 13.4317C14.8862 13.8167 14.7538 14.1853 14.4142 14.4843C14.0747 14.7832 13.6551 14.8998 13.2187 14.9515C12.8107 15 12.3013 15 11.7111 15H6.28889C5.69867 15 5.18933 15 4.78133 14.9515C4.34489 14.8998 3.92533 14.7832 3.58578 14.4843C3.24622 14.1853 3.11378 13.8159 3.05511 13.4317C3 13.0724 3 12.624 3 12.1036V8.89644C3 8.376 3 7.92756 3.05511 7.56835C3.11378 7.18409 3.24622 6.8147 3.58578 6.51574C3.92533 6.21678 4.34489 6.10017 4.78133 6.04852C5.18933 6 5.69867 6 6.28978 6M4.96 7.21148C4.67111 7.24591 4.58044 7.30148 4.52978 7.34609C4.47911 7.3907 4.416 7.47052 4.37689 7.72487C4.336 7.99644 4.33422 8.36504 4.33422 8.93478V12.0652C4.33422 12.635 4.336 13.0043 4.37689 13.2751C4.416 13.5295 4.47911 13.6093 4.52978 13.6539C4.58044 13.6985 4.67111 13.7541 4.96 13.7885C5.26844 13.8245 5.68711 13.8261 6.33422 13.8261H11.6676C12.3147 13.8261 12.7342 13.8245 13.0418 13.7885C13.3307 13.7541 13.4213 13.6985 13.472 13.6539C13.5227 13.6093 13.5858 13.5295 13.6249 13.2751C13.6658 13.0036 13.6676 12.635 13.6676 12.0652V8.93478C13.6676 8.36504 13.6658 7.99565 13.6249 7.72487C13.5858 7.47052 13.5227 7.3907 13.472 7.34609C13.4213 7.30148 13.3307 7.24591 13.0418 7.21148C12.7333 7.17548 12.3147 7.17391 11.6676 7.17391H6.33333C5.68622 7.17391 5.26756 7.17548 4.96 7.21148Z" fill="#2C2C2C"/>
<path d="M3.80769 3C3.59348 3 3.38804 3.10536 3.23657 3.29289C3.0851 3.48043 3 3.73478 3 4C3 4.26522 3.0851 4.51957 3.23657 4.70711C3.38804 4.89464 3.59348 5 3.80769 5H9.19231C9.40652 5 9.61196 4.89464 9.76343 4.70711C9.9149 4.51957 10 4.26522 10 4C10 3.73478 9.9149 3.48043 9.76343 3.29289C9.61196 3.10536 9.40652 3 9.19231 3H3.80769Z" fill="#2C2C2C"/>
<path fill-rule="evenodd" clip-rule="evenodd" d="M8.02523 0H9.97477C11.6714 0 13.0154 0 14.0668 0.128093C15.1486 0.260372 16.0246 0.538326 16.716 1.16456C17.4065 1.79163 17.7129 2.58614 17.8588 3.56735C18 4.52177 18 5.73991 18 7.2787V10.7213C18 12.2601 18 13.4791 17.8588 14.4327C17.7129 15.4139 17.4065 16.2084 16.716 16.8354C16.0246 17.4617 15.1486 17.7396 14.0668 17.8719C13.0145 18 11.6714 18 9.97477 18H8.02523C6.32862 18 4.98462 18 3.93323 17.8719C2.85138 17.7396 1.97538 17.4617 1.284 16.8354C0.593538 16.2084 0.287077 15.4139 0.141231 14.4327C1.10039e-07 13.4782 0 12.2601 0 10.7213V7.2787C0 5.73991 1.10039e-07 4.52093 0.141231 3.56735C0.287077 2.58614 0.593538 1.79163 1.284 1.16456C1.97538 0.538326 2.85138 0.260372 3.93323 0.128093C4.98554 0 6.32862 0 8.02523 0ZM4.11692 1.37302C3.18831 1.48605 2.65292 1.6987 2.26154 2.05284C1.872 2.40698 1.63754 2.89256 1.51292 3.73479C1.38554 4.59544 1.38369 5.72902 1.38369 7.32558V10.6744C1.38369 12.271 1.38554 13.4054 1.51292 14.266C1.63754 15.1074 1.872 15.593 2.26246 15.9472C2.65292 16.3013 3.18831 16.514 4.11692 16.627C5.06585 16.7425 6.31569 16.7442 8.076 16.7442H9.92215C11.6825 16.7442 12.9332 16.7425 13.8822 16.627C14.8098 16.514 15.3452 16.3013 15.7357 15.9472C16.1262 15.593 16.3606 15.1074 16.4852 14.2652C16.6126 13.4054 16.6145 12.271 16.6145 10.6744V7.32558C16.6145 5.72902 16.6126 4.59544 16.4852 3.73395C16.3606 2.89256 16.1262 2.40698 15.7357 2.05284C15.3452 1.6987 14.8098 1.48605 13.8812 1.37302C12.9332 1.25749 11.6825 1.25581 9.92215 1.25581H8.076C6.31569 1.25581 5.06677 1.25749 4.11692 1.37302Z" fill="#2C2C2C"/>
</svg>
