<svg width="18" height="16" viewBox="0 0 18 16" fill="none" xmlns="http://www.w3.org/2000/svg">
<path d="M12.8793 0C11.3206 0 9.93724 0.634385 9 1.72476C8.06276 0.634385 6.6794 0 5.12069 0C3.7631 0.00169364 2.46159 0.558508 1.50163 1.54831C0.54167 2.53811 0.00164258 3.88008 0 5.27987C0 11.0669 8.2094 15.6908 8.55853 15.8852C8.69421 15.9606 8.8459 16 9 16C9.1541 16 9.30579 15.9606 9.44147 15.8852C9.7906 15.6908 18 11.0669 18 5.27987C17.9984 3.88008 17.4583 2.53811 16.4984 1.54831C15.5384 0.558508 14.2369 0.00169364 12.8793 0ZM12.4534 11.3885C11.3728 12.334 10.2177 13.1849 9 13.9325C7.78232 13.1849 6.6272 12.334 5.54664 11.3885C3.86534 9.90136 1.86207 7.63342 1.86207 5.27987C1.86207 4.38877 2.20539 3.53416 2.8165 2.90405C3.42761 2.27394 4.25645 1.91995 5.12069 1.91995C6.50172 1.91995 7.65776 2.67194 8.13802 3.88311C8.20792 4.05967 8.32724 4.21076 8.48076 4.31712C8.63428 4.42348 8.81504 4.48028 9 4.48028C9.18496 4.48028 9.36572 4.42348 9.51924 4.31712C9.67276 4.21076 9.79208 4.05967 9.86198 3.88311C10.3422 2.67194 11.4983 1.91995 12.8793 1.91995C13.7435 1.91995 14.5724 2.27394 15.1835 2.90405C15.7946 3.53416 16.1379 4.38877 16.1379 5.27987C16.1379 7.63342 14.1347 9.90136 12.4534 11.3885Z" fill="#797979"/>
</svg>
