<svg width="18" height="13" viewBox="0 0 18 13" fill="none" xmlns="http://www.w3.org/2000/svg">
<path fill-rule="evenodd" clip-rule="evenodd" d="M2.7 0C1.98392 0 1.29716 0.293494 0.790812 0.815917C0.284464 1.33834 0 2.0469 0 2.78571V10.2143C0 10.9531 0.284464 11.6617 0.790812 12.1841C1.29716 12.7065 1.98392 13 2.7 13H11.7C12.4161 13 13.1028 12.7065 13.6092 12.1841C14.1155 11.6617 14.4 10.9531 14.4 10.2143V8.74157L16.4637 10.8708C16.5896 11.0006 16.7499 11.089 16.9245 11.1248C17.099 11.1606 17.28 11.1423 17.4444 11.072C17.6088 11.0017 17.7494 10.8827 17.8483 10.7301C17.9472 10.5774 18 10.3979 18 10.2143V2.78571C18 2.60209 17.9472 2.4226 17.8483 2.26993C17.7494 2.11726 17.6088 1.99828 17.4444 1.92801C17.28 1.85775 17.099 1.83936 16.9245 1.87517C16.7499 1.91098 16.5896 1.99939 16.4637 2.12921L14.4 4.25843V2.78571C14.4 2.0469 14.1155 1.33834 13.6092 0.815917C13.1028 0.293494 12.4161 0 11.7 0H2.7Z" fill="#2C2C2C"/>
</svg>
